<svg width="32" height="32" viewBox="0 0 32 32" fill="none" xmlns="http://www.w3.org/2000/svg">
<g id="ph:magnifying-glass">
<path id="Vector" d="M28.7064 27.293L23.3036 21.8901C25.2116 19.6179 26.1687 16.6968 25.9755 13.7361C25.7822 10.7753 24.4535 8.00348 22.2663 5.99855C20.0792 3.99361 17.2025 2.91039 14.2361 2.97476C11.2698 3.03913 8.44277 4.24613 6.34466 6.34406C4.24655 8.44199 3.03929 11.2689 2.97466 14.2352C2.91002 17.2016 3.993 20.0784 5.99774 22.2657C8.00248 24.453 10.7742 25.782 13.735 25.9755C16.6957 26.1691 19.6168 25.2122 21.8892 23.3044L27.2921 28.7073C27.4797 28.8948 27.734 29.0002 27.9992 29.0002C28.2645 29.0002 28.5188 28.8948 28.7064 28.7073C28.8939 28.5197 28.9993 28.2654 28.9993 28.0001C28.9993 27.7349 28.8939 27.4806 28.7064 27.293ZM4.99999 14.5C4.99999 12.6211 5.55715 10.7844 6.60103 9.2221C7.6449 7.65983 9.1286 6.44219 10.8645 5.72316C12.6004 5.00413 14.5105 4.816 16.3533 5.18256C18.1962 5.54912 19.8889 6.4539 21.2175 7.7825C22.5461 9.1111 23.4509 10.8038 23.8175 12.6467C24.184 14.4895 23.9959 16.3996 23.2768 18.1355C22.5578 19.8714 21.3402 21.3551 19.7779 22.399C18.2156 23.4429 16.3789 24 14.5 24C11.9813 23.9972 9.5666 22.9954 7.78562 21.2144C6.00464 19.4334 5.00284 17.0187 4.99999 14.5Z" fill="#4B4B4B"/>
</g>
</svg>
