<svg width="32" height="32" viewBox="0 0 32 32" fill="none" xmlns="http://www.w3.org/2000/svg">
<g id="ph:shopping-cart">
<path id="Vector" d="M26.4643 16.5366L27.9839 8.17887C28.0101 8.03477 28.0043 7.88666 27.967 7.74503C27.9296 7.6034 27.8616 7.4717 27.7677 7.35925C27.6739 7.24679 27.5565 7.15633 27.4238 7.09425C27.2912 7.03218 27.1465 7 27 7H6.83462L6.22412 3.64225C6.14053 3.18134 5.89772 2.76442 5.53808 2.46427C5.17844 2.16412 4.72481 1.9998 4.25637 2H2C1.73478 2 1.48043 2.10536 1.29289 2.29289C1.10536 2.48043 1 2.73478 1 3C1 3.26522 1.10536 3.51957 1.29289 3.70711C1.48043 3.89464 1.73478 4 2 4H4.25625L7.68825 22.8754C7.20001 23.3054 6.84132 23.863 6.65247 24.4856C6.46361 25.1081 6.45207 25.7711 6.61914 26.3998C6.78621 27.0286 7.12527 27.5984 7.59825 28.0451C8.07122 28.4918 8.65938 28.7979 9.29667 28.9288C9.93395 29.0597 10.5951 29.0104 11.2059 28.7864C11.8167 28.5623 12.353 28.1724 12.7544 27.6605C13.1559 27.1485 13.4067 26.5348 13.4786 25.8881C13.5505 25.2415 13.4408 24.5877 13.1616 24H19.8384C19.5134 24.6852 19.4198 25.4573 19.5716 26.2003C19.7235 26.9433 20.1125 27.6168 20.6802 28.1196C21.2479 28.6223 21.9635 28.9271 22.7194 28.9879C23.4753 29.0488 24.2305 28.8626 24.8713 28.4572C25.5122 28.0518 26.004 27.4492 26.2728 26.7401C26.5416 26.031 26.5728 25.2538 26.3617 24.5255C26.1507 23.7972 25.7087 23.1571 25.1024 22.7016C24.4961 22.2461 23.7583 21.9999 23 22H9.56188L9.01637 19H23.5126C24.2153 19.0003 24.8957 18.7539 25.4352 18.3036C25.9747 17.8534 26.3389 17.228 26.4643 16.5366ZM11.5 25.5C11.5 25.7967 11.412 26.0867 11.2472 26.3334C11.0824 26.58 10.8481 26.7723 10.574 26.8858C10.2999 26.9993 9.99834 27.0291 9.70736 26.9712C9.41639 26.9133 9.14912 26.7704 8.93934 26.5607C8.72956 26.3509 8.5867 26.0836 8.52882 25.7926C8.47094 25.5017 8.50065 25.2001 8.61418 24.926C8.72771 24.6519 8.91997 24.4176 9.16665 24.2528C9.41332 24.088 9.70333 24 10 24C10.3977 24.0004 10.779 24.1586 11.0602 24.4398C11.3414 24.721 11.4996 25.1023 11.5 25.5ZM24.5 25.5C24.5 25.7967 24.412 26.0867 24.2472 26.3334C24.0824 26.58 23.8481 26.7723 23.574 26.8858C23.2999 26.9993 22.9983 27.0291 22.7074 26.9712C22.4164 26.9133 22.1491 26.7704 21.9393 26.5607C21.7296 26.3509 21.5867 26.0836 21.5288 25.7926C21.4709 25.5017 21.5007 25.2001 21.6142 24.926C21.7277 24.6519 21.92 24.4176 22.1666 24.2528C22.4133 24.088 22.7033 24 23 24C23.3977 24.0004 23.779 24.1586 24.0602 24.4398C24.3414 24.721 24.4996 25.1023 24.5 25.5ZM7.19825 9H25.8018L24.4965 16.179C24.4547 16.4094 24.3333 16.6179 24.1535 16.7679C23.9737 16.918 23.7469 17.0001 23.5128 17H8.65275L7.19825 9Z" fill="#4B4B4B"/>
</g>
</svg>
